<svg width="94" height="42" viewBox="0 0 94 42" fill="none" xmlns="http://www.w3.org/2000/svg">
<g clip-path="url(#clip0_474_1589)">
<mask id="mask0_474_1589" style="mask-type:luminance" maskUnits="userSpaceOnUse" x="0" y="0" width="94" height="42">
<path d="M94 0H0V42H94V0Z" fill="white"/>
</mask>
<g mask="url(#mask0_474_1589)">
<path d="M10.0991 19.2777V7.22386H14.5796C15.2275 7.22386 15.815 7.35874 16.3425 7.62852C16.87 7.89258 17.2856 8.27136 17.5894 8.76501C17.8991 9.25867 18.0539 9.83842 18.0539 10.5043C18.0539 10.7739 18.0166 11.0524 17.9421 11.3395C17.8732 11.6264 17.7529 11.8904 17.5809 12.1315C17.4147 12.3726 17.1853 12.5563 16.8929 12.6825C17.2712 12.7744 17.5752 12.9465 17.8045 13.1991C18.0338 13.4459 18.2087 13.7329 18.3291 14.0601C18.4495 14.3816 18.5297 14.7116 18.5698 15.0502C18.61 15.3889 18.63 15.696 18.63 15.9715C18.63 16.5914 18.4695 17.151 18.1485 17.6504C17.8274 18.1498 17.3945 18.5459 16.8499 18.8386C16.311 19.1314 15.7148 19.2777 15.0612 19.2777H10.0991ZM12.4727 17.2544H14.8118C15.1271 17.2544 15.4138 17.1797 15.6718 17.0305C15.9297 16.8755 16.1361 16.6661 16.2909 16.402C16.4457 16.1322 16.5231 15.828 16.5231 15.4894C16.5231 15.2024 16.4457 14.9297 16.2909 14.6715C16.1361 14.4131 15.9297 14.2036 15.6718 14.0429C15.4138 13.8764 15.1271 13.7932 14.8118 13.7932H12.4727V17.2544ZM12.4727 11.813H14.3044C14.6828 11.813 15.0067 11.6895 15.2762 11.4427C15.5457 11.1959 15.6803 10.8773 15.6803 10.487C15.6803 10.0852 15.5457 9.78102 15.2762 9.57437C15.0067 9.36196 14.6828 9.25579 14.3044 9.25579H12.4727V11.813ZM23.4773 7.22386H26.1776L30.5463 19.2777H28.0266L27.3042 17.2802H22.3508L21.6284 19.2777H19.1087L23.4773 7.22386ZM23.2193 14.9039H26.4357L24.8189 10.487L23.2193 14.9039ZM31.8631 19.2777V7.22386H34.2367V16.9014H39.0869V19.2777H31.8631ZM44.5023 7.22386H47.2027L51.5713 19.2777H49.0516L48.3292 17.2802H43.3757L42.6533 19.2777H40.1337L44.5023 7.22386ZM44.2443 14.9039H47.4606L45.8439 10.487L44.2443 14.9039ZM52.8881 19.2777V7.22386H55.4509L60.1464 14.9814V7.22386H62.5199V19.2777H59.9571L55.2617 11.5202V19.2777H52.8881ZM70.0651 19.5015C69.2509 19.5015 68.4855 19.3408 67.7689 19.0194C67.0522 18.6923 66.4216 18.2416 65.8769 17.6676C65.3381 17.0937 64.9138 16.4307 64.6042 15.6788C64.3004 14.921 64.1484 14.1118 64.1484 13.2508C64.1484 12.3841 64.3004 11.5747 64.6042 10.8229C64.9138 10.0651 65.3381 9.40217 65.8769 8.83392C66.4216 8.25992 67.0522 7.81223 67.7689 7.49077C68.4855 7.16359 69.2509 7 70.0651 7C71.0396 7 71.9369 7.22673 72.7567 7.68018C73.5765 8.12786 74.256 8.72776 74.7949 9.47963L72.6793 10.6248C72.3583 10.2459 71.9713 9.94459 71.5183 9.72074C71.0655 9.49114 70.5811 9.37634 70.0651 9.37634C69.5777 9.37634 69.1191 9.47683 68.6891 9.67766C68.2591 9.87856 67.8807 10.157 67.5539 10.5128C67.2329 10.8687 66.9805 11.2791 66.7971 11.7441C66.6136 12.209 66.522 12.7112 66.522 13.2508C66.522 13.7846 66.6136 14.2868 66.7971 14.7576C66.9805 15.2224 67.2329 15.6329 67.5539 15.9888C67.8807 16.3389 68.2591 16.6173 68.6891 16.824C69.1191 17.0248 69.5777 17.1253 70.0651 17.1253C70.5867 17.1253 71.0712 17.0104 71.5183 16.7809C71.9713 16.5513 72.3583 16.247 72.6793 15.8682L74.7949 17.022C74.256 17.7681 73.5765 18.3679 72.7567 18.8214C71.9369 19.2748 71.0396 19.5015 70.0651 19.5015ZM76.2814 19.2777V7.22386H83.9008V9.60019H78.6546V11.6321H82.7487V14.0084H78.6546V16.9014H83.9008V19.2777H76.2814Z" fill="#696969"/>
<path d="M14.7532 27.1031H12.7669L12.7586 34.259H11.5951L11.6034 27.1031H10.0991V25.9383H11.6034L11.5951 23.3255H12.7586L12.7669 25.9383H14.7532V27.1031ZM19.9984 34.4753C19.2337 34.4753 18.5357 34.2784 17.9041 33.8846C17.2779 33.4907 16.7765 32.9637 16.3998 32.3036C16.0285 31.6379 15.8429 30.903 15.8429 30.0986C15.8429 29.4884 15.951 28.9198 16.167 28.3928C16.3831 27.8603 16.6796 27.3943 17.0564 26.995C17.4386 26.59 17.8819 26.2738 18.386 26.0464C18.8902 25.8189 19.4277 25.7052 19.9984 25.7052C20.6134 25.7052 21.1785 25.8272 21.6938 26.0713C22.2146 26.3154 22.6607 26.6565 23.0319 27.0948C23.4087 27.533 23.6912 28.0461 23.8796 28.6341C24.0735 29.2222 24.1538 29.8573 24.1207 30.5396H17.0729C17.1394 31.0665 17.3056 31.538 17.5716 31.9541C17.8431 32.3702 18.1866 32.7002 18.6022 32.9442C19.0232 33.1829 19.4887 33.3048 19.9984 33.3104C20.5525 33.3104 21.0511 33.1662 21.4943 32.8777C21.9432 32.5893 22.3033 32.1927 22.5748 31.6879L23.7549 31.9624C23.4225 32.7002 22.9211 33.3048 22.2507 33.7764C21.5802 34.2424 20.8295 34.4753 19.9984 34.4753ZM17.0397 29.5993H22.9488C22.91 29.0834 22.7521 28.6119 22.475 28.1849C22.2036 27.7522 21.8518 27.4083 21.4196 27.153C20.9874 26.8923 20.5136 26.7619 19.9984 26.7619C19.4831 26.7619 19.0122 26.8896 18.5855 27.1447C18.1589 27.3943 17.8098 27.7355 17.5383 28.1682C17.2669 28.5953 17.1006 29.0724 17.0397 29.5993ZM28.4621 34.4171C28.0078 34.406 27.5645 34.3228 27.1323 34.1675C26.7001 34.0121 26.3234 33.8014 26.0021 33.5351C25.6807 33.2688 25.4508 32.9665 25.3122 32.6281L26.3179 32.1954C26.4065 32.4118 26.5699 32.6114 26.8082 32.7945C27.052 32.972 27.329 33.1162 27.6393 33.2273C27.9496 33.3326 28.257 33.3853 28.5618 33.3853C28.8998 33.3853 29.2156 33.3299 29.5093 33.2189C29.8029 33.1079 30.0412 32.9498 30.2241 32.7446C30.4124 32.5338 30.5066 32.287 30.5066 32.0041C30.5066 31.699 30.4069 31.4605 30.2074 31.2885C30.0079 31.1109 29.7558 30.9723 29.4511 30.8725C29.1464 30.767 28.8333 30.6672 28.512 30.5729C27.9246 30.412 27.4066 30.2345 26.9578 30.0403C26.509 29.8462 26.1572 29.5993 25.9023 29.2998C25.6529 28.9947 25.5283 28.6036 25.5283 28.1265C25.5283 27.6218 25.6696 27.1863 25.9521 26.8202C26.2402 26.4486 26.6143 26.1628 27.0741 25.9631C27.5396 25.758 28.0355 25.6553 28.5618 25.6553C29.2378 25.6553 29.8528 25.8022 30.4069 26.0963C30.9665 26.3903 31.3709 26.7814 31.6203 27.2695L30.6811 27.827C30.5813 27.5996 30.4235 27.4027 30.2074 27.2362C29.9913 27.0698 29.7447 26.9395 29.4677 26.8451C29.1962 26.7509 28.9192 26.7009 28.6366 26.6953C28.282 26.6898 27.9523 26.7426 27.6477 26.8535C27.3429 26.9589 27.0963 27.117 26.9079 27.3278C26.7251 27.5385 26.6336 27.7965 26.6336 28.1016C26.6336 28.4067 26.7251 28.6397 26.9079 28.8006C27.0908 28.9559 27.3373 29.0834 27.6477 29.1833C27.9635 29.2776 28.318 29.3886 28.7114 29.5161C29.2156 29.677 29.6893 29.86 30.1325 30.0653C30.5759 30.2706 30.9332 30.5257 31.2047 30.8308C31.4763 31.1359 31.6091 31.5215 31.6037 31.9874C31.6037 32.4867 31.4541 32.9222 31.1549 33.2938C30.8556 33.6654 30.4678 33.9512 29.9913 34.1508C29.5149 34.345 29.0051 34.4337 28.4621 34.4171ZM44.9415 29.1084V34.259H43.7779V29.3414C43.7779 28.8865 43.6671 28.4733 43.4455 28.1016C43.2239 27.7299 42.9274 27.4331 42.5562 27.2113C42.185 26.9893 41.7722 26.8784 41.3179 26.8784C40.8691 26.8784 40.4563 26.9893 40.0795 27.2113C39.7083 27.4331 39.4119 27.7299 39.1903 28.1016C38.9686 28.4733 38.8578 28.8865 38.8578 29.3414V34.259H37.6943V21.7778H38.8578V27.0865C39.1515 26.6649 39.5338 26.3292 40.0047 26.0797C40.4756 25.8301 40.9882 25.7052 41.5423 25.7052C42.1684 25.7052 42.739 25.8578 43.2544 26.1628C43.7696 26.4679 44.1796 26.8784 44.4843 27.3943C44.7891 27.9102 44.9415 28.4816 44.9415 29.1084ZM53.6076 25.9383H54.7711V34.259H53.6076L53.566 32.7113C53.2945 33.2383 52.915 33.6654 52.4275 33.9928C51.9399 34.3145 51.3581 34.4753 50.6821 34.4753C50.0727 34.4753 49.502 34.3616 48.9701 34.1342C48.4381 33.9011 47.97 33.5823 47.5655 33.1773C47.1611 32.7724 46.8452 32.3036 46.618 31.771C46.3909 31.2385 46.2773 30.6672 46.2773 30.057C46.2773 29.4579 46.3882 28.8948 46.6097 28.3679C46.8369 27.8409 47.1472 27.3777 47.5406 26.9783C47.9396 26.5789 48.3994 26.2683 48.9203 26.0464C49.4466 25.8189 50.009 25.7052 50.6074 25.7052C51.2999 25.7052 51.9039 25.8716 52.4192 26.2044C52.9344 26.5317 53.3445 26.9617 53.6492 27.4942L53.6076 25.9383ZM50.6572 33.3437C51.2501 33.3437 51.7598 33.1995 52.1864 32.911C52.6131 32.617 52.94 32.2232 53.1671 31.7295C53.3999 31.2358 53.5162 30.6922 53.5162 30.0986C53.5162 29.4884 53.3999 28.9392 53.1671 28.451C52.9344 27.9574 52.6048 27.5663 52.1781 27.2778C51.7515 26.9893 51.2446 26.8451 50.6572 26.8451C50.0699 26.8451 49.5325 26.9921 49.0449 27.2861C48.5628 27.5746 48.1777 27.9657 47.8896 28.4594C47.6071 28.9531 47.4658 29.4995 47.4658 30.0986C47.4658 30.7032 47.6127 31.2524 47.9062 31.7461C48.2 32.2343 48.5878 32.6226 49.0698 32.911C49.5574 33.1995 50.0865 33.3437 50.6572 33.3437ZM61.0136 27.1031H59.0273L59.019 34.259H57.8554L57.8638 27.1031H56.3595V25.9383H57.8638L57.8554 23.3255H59.019L59.0273 25.9383H61.0136V27.1031ZM66.2587 34.4753C65.4941 34.4753 64.796 34.2784 64.1644 33.8846C63.5383 33.4907 63.0369 32.9637 62.6601 32.3036C62.2889 31.6379 62.1033 30.903 62.1033 30.0986C62.1033 29.4884 62.2113 28.9198 62.4274 28.3928C62.6435 27.8603 62.9399 27.3943 63.3167 26.995C63.6989 26.59 64.1422 26.2738 64.6464 26.0464C65.1506 25.8189 65.6881 25.7052 66.2587 25.7052C66.8738 25.7052 67.4389 25.8272 67.9542 26.0713C68.475 26.3154 68.9211 26.6565 69.2922 27.0948C69.669 27.533 69.9516 28.0461 70.1399 28.6341C70.3339 29.2222 70.4143 29.8573 70.381 30.5396H63.3333C63.3998 31.0665 63.5659 31.538 63.8319 31.9541C64.1034 32.3702 64.447 32.7002 64.8625 32.9442C65.2836 33.1829 65.749 33.3048 66.2587 33.3104C66.8128 33.3104 67.3115 33.1662 67.7547 32.8777C68.2035 32.5893 68.5636 32.1927 68.8351 31.6879L70.0153 31.9624C69.6828 32.7002 69.1815 33.3048 68.511 33.7764C67.8406 34.2424 67.0898 34.4753 66.2587 34.4753ZM63.3 29.5993H69.2092C69.1704 29.0834 69.0124 28.6119 68.7354 28.1849C68.464 27.7522 68.1121 27.4083 67.68 27.153C67.2478 26.8923 66.774 26.7619 66.2587 26.7619C65.7435 26.7619 65.2725 26.8896 64.8458 27.1447C64.4192 27.3943 64.0702 27.7355 63.7987 28.1682C63.5272 28.5953 63.361 29.0724 63.3 29.5993ZM72.1381 34.259V25.9383H73.3016V27.0865C73.5953 26.6649 73.9776 26.3292 74.4486 26.0797C74.9195 25.8301 75.4321 25.7052 75.9861 25.7052C76.3074 25.7052 76.6177 25.7468 76.917 25.8301L76.4432 26.9866C76.2105 26.9145 75.9833 26.8784 75.7617 26.8784C75.3129 26.8784 74.9002 26.9893 74.5234 27.2113C74.1521 27.4331 73.8558 27.7299 73.634 28.1016C73.4125 28.4733 73.3016 28.8865 73.3016 29.3414V34.259H72.1381ZM80.8664 34.4171C80.4119 34.406 79.9683 34.3228 79.5364 34.1675C79.1037 34.0121 78.7269 33.8014 78.4061 33.5351C78.0844 33.2688 77.8545 32.9665 77.7162 32.6281L78.7215 32.1954C78.81 32.4118 78.9747 32.6114 79.2124 32.7945C79.4564 32.972 79.7329 33.1162 80.0429 33.2273C80.3536 33.3326 80.6613 33.3853 80.9658 33.3853C81.3037 33.3853 81.6191 33.3299 81.9136 33.2189C82.2072 33.1079 82.4457 32.9498 82.6283 32.7446C82.8163 32.5338 82.9111 32.287 82.9111 32.0041C82.9111 31.699 82.8108 31.4605 82.6112 31.2885C82.4115 31.1109 82.1598 30.9723 81.8545 30.8725C81.55 30.767 81.2369 30.6672 80.9161 30.5729C80.3288 30.412 79.8106 30.2345 79.3616 30.0403C78.9133 29.8462 78.5606 29.5993 78.3066 29.2998C78.0572 28.9947 77.9322 28.6036 77.9322 28.1265C77.9322 27.6218 78.0736 27.1863 78.3563 26.8202C78.6438 26.4486 79.0182 26.1628 79.4781 25.9631C79.9435 25.758 80.4391 25.6553 80.9658 25.6553C81.6424 25.6553 82.2562 25.8022 82.8108 26.0963C83.371 26.3903 83.7749 26.7814 84.0243 27.2695L83.0851 27.827C82.9856 27.5996 82.8279 27.4027 82.6112 27.2362C82.3952 27.0698 82.149 26.9395 81.8716 26.8451C81.6005 26.7509 81.3232 26.7009 81.0404 26.6953C80.6861 26.6898 80.356 26.7426 80.0514 26.8535C79.7469 26.9589 79.4999 27.117 79.3119 27.3278C79.1285 27.5385 79.0376 27.7965 79.0376 28.1016C79.0376 28.4067 79.1285 28.6397 79.3119 28.8006C79.4944 28.9559 79.7415 29.0834 80.0514 29.1833C80.3668 29.2776 80.7219 29.3886 81.1157 29.5161C81.6191 29.677 82.093 29.86 82.5366 30.0653C82.9802 30.2706 83.3368 30.5257 83.6087 30.8308C83.8798 31.1359 84.0134 31.5215 84.008 31.9874C84.008 32.4867 83.858 32.9222 83.559 33.2938C83.2599 33.6654 82.8714 33.9512 82.3952 34.1508C81.919 34.345 81.4094 34.4337 80.8664 34.4171Z" fill="#696969"/>
<path d="M0.810241 39.2003C0.810428 40.36 1.89921 41.2997 3.24172 41.2997H10.876V42H3.24172C1.5077 42 0.0909019 40.8238 0.00379326 39.3446L0 39.2003V31.1111H0.810241V39.2003ZM94 39.2003C94 40.7465 92.5481 42 90.7582 42H83.124V41.2997H90.7582C92.1006 41.2997 93.1897 40.36 93.1897 39.2003V31.1111H94V39.2003ZM10.876 0.700304H3.24172C1.89921 0.700304 0.810428 1.64004 0.810241 2.7997V10.8889H0V2.7997C0.000184171 1.30191 1.36177 0.0790121 3.07406 0.00379774L3.24172 0H10.876V0.700304ZM90.926 0.00379774C92.6382 0.0790113 94 1.30191 94 2.7997V10.8889H93.1897V2.7997C93.1897 1.64004 92.1006 0.700304 90.7582 0.700304H83.124V0H90.7582L90.926 0.00379774Z" fill="#696969"/>
</g>
</g>
<defs>
<clipPath id="clip0_474_1589">
<rect width="94" height="42" fill="white"/>
</clipPath>
</defs>
</svg>
