<?xml version="1.0" encoding="UTF-8" standalone="no"?>
<svg
   width="24"
   height="24"
   viewBox="0 0 24 24"
   fill="none"
   version="1.1"
   id="svg5"
   sodipodi:docname="bth-icon.svg"
   inkscape:version="1.4.3 (0d15f75, 2025-12-25)"
   xmlns:inkscape="http://www.inkscape.org/namespaces/inkscape"
   xmlns:sodipodi="http://sodipodi.sourceforge.net/DTD/sodipodi-0.dtd"
   xmlns="http://www.w3.org/2000/svg"
   xmlns:svg="http://www.w3.org/2000/svg">
  <defs
     id="defs5" />
  <sodipodi:namedview
     id="namedview5"
     pagecolor="#ffffff"
     bordercolor="#000000"
     borderopacity="0.25"
     inkscape:showpageshadow="2"
     inkscape:pageopacity="0.0"
     inkscape:pagecheckerboard="0"
     inkscape:deskcolor="#d1d1d1"
     showgrid="false"
     inkscape:zoom="24.416667"
     inkscape:cx="12"
     inkscape:cy="12"
     inkscape:window-width="1440"
     inkscape:window-height="830"
     inkscape:window-x="-6"
     inkscape:window-y="-6"
     inkscape:window-maximized="1"
     inkscape:current-layer="svg5" />
  <rect
     x="0.5"
     y="0.5"
     width="23"
     height="23"
     rx="11.5"
     fill="#454ade"
     id="rect1"
     style="stroke-width:1.27783" />
  <path
     d="m 5.5507867,17.814528 c 6.41e-5,0.370428 0.3482719,0.670704 0.7776179,0.670704 H 8.769931 v 0.223612 H 6.3284046 c -0.5545554,0 -1.0076688,-0.375666 -1.0355242,-0.848188 l -0.00127,-0.04612 v -2.583923 h 0.2591255 z"
     fill="#ffffff"
     id="path1"
     style="stroke-width:1.27783" />
  <path
     d="m 18.708458,17.814528 c -1.21e-4,0.49399 -0.464344,0.894316 -1.036786,0.894316 h -2.44145 v -0.223612 h 2.44145 c 0.429332,0 0.777528,-0.300276 0.777656,-0.670704 v -2.583922 h 0.25913 z"
     fill="#ffffff"
     id="path2"
     style="stroke-width:1.27783" />
  <path
     d="M 8.769931,5.5153672 H 6.3284046 c -0.429346,0 -0.7775538,0.3001756 -0.7776179,0.6706165 V 8.7699306 H 5.2916663 V 6.1859837 C 5.2917304,5.707545 5.7271713,5.3169028 6.274776,5.2928806 l 0.053626,-0.00127 h 2.4415271 z"
     fill="#ffffff"
     id="path3"
     style="stroke-width:1.27783" />
  <path
     d="m 17.725342,5.2928806 c 0.547522,0.02402 0.982995,0.4146644 0.983116,0.8931031 v 2.5839469 h -0.25913 V 6.1859837 C 18.4492,5.8155428 18.101004,5.5153672 17.671672,5.5153672 h -2.44145 V 5.2916668 h 2.44145 z"
     fill="#ffffff"
     id="path4"
     style="stroke-width:1.27783" />
  <path
     d="M 8.9007116,16.152778 V 7.5889704 h 3.1869424 c 0.460768,0 0.878856,0.095837 1.254014,0.2875002 0.375154,0.1875904 0.670832,0.4567288 0.886904,0.80744 0.220288,0.3507124 0.330306,0.7625794 0.330306,1.2356114 0,0.191668 -0.02645,0.389468 -0.0795,0.5934 -0.04891,0.203932 -0.13455,0.39151 -0.256835,0.562732 -0.11832,0.171224 -0.281493,0.301814 -0.489387,0.391514 0.2691,0.06525 0.4853,0.187578 0.648344,0.366978 0.163173,0.175436 0.2875,0.379244 0.37311,0.611672 0.08571,0.228464 0.142726,0.462938 0.17135,0.703542 0.02845,0.240608 0.04285,0.458722 0.04285,0.65448 0,0.44045 -0.114236,0.838092 -0.342574,1.192804 -0.228339,0.354838 -0.536283,0.636204 -0.923707,0.844228 -0.383332,0.207896 -0.807426,0.311906 -1.272282,0.311906 z m 1.6882384,-1.4375 h 1.663922 c 0.22425,0 0.428182,-0.05302 0.611674,-0.159084 0.183486,-0.110037 0.330304,-0.258876 0.44045,-0.446454 0.110036,-0.191668 0.165086,-0.407868 0.165086,-0.648472 0,-0.203936 -0.05508,-0.397518 -0.165086,-0.581136 -0.110157,-0.183488 -0.256964,-0.33235 -0.44045,-0.446454 -0.183492,-0.118322 -0.387424,-0.177484 -0.611674,-0.177484 H 10.58895 Z m 0,-3.865918 h 1.30295 c 0.269228,0 0.49961,-0.08764 0.691278,-0.263092 0.191668,-0.175314 0.2875,-0.401608 0.2875,-0.679014 0,-0.285454 -0.09587,-0.501539 -0.2875,-0.648343 C 12.39151,9.108031 12.161128,9.032578 11.8919,9.032578 h -1.30295 z"
     fill="#ffffff"
     id="path5"
     style="stroke-width:1.27783" />
</svg>
