<svg width="32" height="32" viewBox="0 0 32 32" fill="none" xmlns="http://www.w3.org/2000/svg">
<g clip-path="url(#clip0_895_7036)">
<path d="M26.4288 7.45014C26.4288 6.38796 25.5679 5.53027 24.5097 5.53027C23.4514 5.53027 22.5898 6.38796 22.5898 7.45014C22.5898 8.50841 23.4514 9.36606 24.5097 9.36606C25.5679 9.36606 26.4288 8.50841 26.4288 7.45014Z" fill="url(#paint0_linear_895_7036)"/>
<path d="M28.9858 22.4365C28.9148 23.9947 28.6541 24.8413 28.4378 25.4036C28.1471 26.1491 27.8004 26.6822 27.2382 27.2413C26.6822 27.8005 26.1491 28.1464 25.4036 28.4338C24.8413 28.6534 23.9915 28.9148 22.4334 28.989C20.7489 29.0633 20.2498 29.0791 15.9781 29.0791C11.7103 29.0791 11.2072 29.0633 9.5227 28.989C7.96458 28.9148 7.11874 28.6534 6.5564 28.4338C5.80696 28.1464 5.27786 27.8005 4.71872 27.2413C4.15562 26.6822 3.80894 26.1491 3.52226 25.4036C3.30583 24.8413 3.04131 23.9947 2.97414 22.4365C2.89205 20.752 2.87701 20.245 2.87701 15.982C2.87701 11.7103 2.89205 11.2072 2.97414 9.52266C3.04131 7.96455 3.30583 7.11876 3.52226 6.55169C3.80894 5.80697 4.15562 5.27703 4.71872 4.71789C5.27786 4.15959 5.80696 3.81285 6.5564 3.52227C7.11874 3.30193 7.96458 3.04446 9.5227 2.97024C11.2072 2.89596 11.7103 2.87701 15.9781 2.87701C20.2498 2.87701 20.7489 2.89596 22.4334 2.97024C23.9915 3.04446 24.8413 3.30193 25.4036 3.52227C26.1491 3.81285 26.6822 4.15959 27.2382 4.71789C27.8004 5.27703 28.1471 5.80697 28.4378 6.55169C28.6541 7.11876 28.9148 7.96455 28.9858 9.52266C29.064 11.2072 29.083 11.7103 29.083 15.982C29.083 20.245 29.064 20.752 28.9858 22.4365ZM31.8629 9.3916C31.7847 7.68889 31.5162 6.52562 31.1174 5.51241C30.7115 4.46125 30.1673 3.57042 29.2765 2.67959C28.3896 1.79273 27.4988 1.24858 26.4476 0.837936C25.4305 0.443047 24.2711 0.171355 22.5676 0.0971393C20.8641 0.0149862 20.3201 0 15.9781 0C11.64 0 11.092 0.0149862 9.38846 0.0971393C7.68893 0.171355 6.53034 0.443047 5.50845 0.837936C4.46125 1.24858 3.57042 1.79273 2.68356 2.67959C1.79273 3.57042 1.24858 4.46125 0.838706 5.51241C0.443815 6.52562 0.175322 7.68889 0.0931697 9.3916C0.0189538 11.0951 0 11.64 0 15.982C0 20.3201 0.0189538 20.8641 0.0931697 22.5676C0.175322 24.2672 0.443815 25.4297 0.838706 26.4477C1.24858 27.4949 1.79273 28.3897 2.68356 29.2765C3.57042 30.1634 4.46125 30.7115 5.50845 31.1213C6.53034 31.5162 7.68893 31.7847 9.38846 31.8629C11.092 31.9411 11.64 31.9601 15.9781 31.9601C20.3201 31.9601 20.8641 31.9411 22.5676 31.8629C24.2711 31.7847 25.4305 31.5162 26.4476 31.1213C27.4988 30.7115 28.3896 30.1634 29.2765 29.2765C30.1673 28.3897 30.7115 27.4949 31.1174 26.4477C31.5162 25.4297 31.7847 24.2672 31.8629 22.5676C31.9411 20.8641 31.96 20.3201 31.96 15.982C31.96 11.64 31.9411 11.0951 31.8629 9.3916Z" fill="url(#paint1_linear_895_7036)"/>
<path d="M15.9765 21.3045C13.0362 21.3045 10.6504 18.9226 10.6504 15.9824C10.6504 13.0374 13.0362 10.6524 15.9765 10.6524C18.9175 10.6524 21.3064 13.0374 21.3064 15.9824C21.3064 18.9226 18.9175 21.3045 15.9765 21.3045ZM15.9765 7.77148C11.4441 7.77148 7.77344 11.45 7.77344 15.9824C7.77344 20.5108 11.4441 24.1854 15.9765 24.1854C20.5088 24.1854 24.1834 20.5108 24.1834 15.9824C24.1834 11.45 20.5088 7.77148 15.9765 7.77148Z" fill="url(#paint2_linear_895_7036)"/>
</g>
<defs>
<linearGradient id="paint0_linear_895_7036" x1="0.288376" y1="31.6293" x2="29.2982" y2="2.61957" gradientUnits="userSpaceOnUse">
<stop stop-color="#FFD521"/>
<stop offset="0.05" stop-color="#FFD521"/>
<stop offset="0.501119" stop-color="#F50000"/>
<stop offset="0.95" stop-color="#B900B4"/>
<stop offset="0.950079" stop-color="#B900B4"/>
<stop offset="1" stop-color="#B900B4"/>
</linearGradient>
<linearGradient id="paint1_linear_895_7036" x1="0.288275" y1="31.6694" x2="29.3219" y2="2.63577" gradientUnits="userSpaceOnUse">
<stop stop-color="#FFD521"/>
<stop offset="0.05" stop-color="#FFD521"/>
<stop offset="0.501119" stop-color="#F50000"/>
<stop offset="0.95" stop-color="#B900B4"/>
<stop offset="0.950079" stop-color="#B900B4"/>
<stop offset="1" stop-color="#B900B4"/>
</linearGradient>
<linearGradient id="paint2_linear_895_7036" x1="0.294225" y1="31.6706" x2="29.3209" y2="2.64392" gradientUnits="userSpaceOnUse">
<stop stop-color="#FFD521"/>
<stop offset="0.05" stop-color="#FFD521"/>
<stop offset="0.501119" stop-color="#F50000"/>
<stop offset="0.95" stop-color="#B900B4"/>
<stop offset="0.950079" stop-color="#B900B4"/>
<stop offset="1" stop-color="#B900B4"/>
</linearGradient>
<clipPath id="clip0_895_7036">
<rect width="32" height="32" fill="white"/>
</clipPath>
</defs>
</svg>
