<svg width="32" height="22" viewBox="0 0 32 22" fill="none" xmlns="http://www.w3.org/2000/svg">
<path d="M31.3313 3.43537C30.9633 2.08308 29.8791 1.01821 28.5022 0.656807C26.0067 0 16 0 16 0C16 0 5.99333 0 3.4978 0.656807C2.12102 1.01821 1.03665 2.08308 0.668678 3.43537C0 5.8863 0 11 0 11C0 11 0 16.1136 0.668678 18.5648C1.03665 19.9169 2.12102 20.9818 3.4978 21.3433C5.99333 22 16 22 16 22C16 22 26.0067 22 28.5022 21.3433C29.8791 20.9818 30.9633 19.9169 31.3313 18.5648C32 16.1136 32 11 32 11C32 11 32 5.8863 31.3313 3.43537Z" fill="#ED1D24"/>
<path d="M12.7266 15.6426L21.0902 11L12.7266 6.35689V15.6426Z" fill="white"/>
</svg>
